<?xml version="1.0" ?><!DOCTYPE svg  PUBLIC '-//W3C//DTD SVG 1.1//EN'  'http://www.w3.org/Graphics/SVG/1.1/DTD/svg11.dtd'><svg height="35px" style="enable-background:new 0 0 512 512;" version="1.1" viewBox="0 0 512 512" width="35px" xml:space="preserve" xmlns="http://www.w3.org/2000/svg" xmlns:xlink="http://www.w3.org/1999/xlink"><g id="C_-_86_x2C__Avatar_x2C__human_x2C__man_x2C__people_x2C__person_x2C__profile_x2C__user">
<g>
<path fill="transparent" d="M255.997,81.921c-96.452,0-174.922,78.093-174.922,174.082    c0,95.986,78.47,174.076,174.922,174.076s174.923-78.09,174.923-174.076C430.92,160.014,352.449,81.921,255.997,81.921z     M256.859,135.116c29.455,0,53.416,23.38,53.416,52.12c0,14.219-5.203,32.284-13.256,46.025    c-10.368,17.69-24.631,27.433-40.16,27.433c-15.533,0-29.797-9.742-40.165-27.432c-8.054-13.741-13.259-31.807-13.259-46.026    C203.436,158.496,227.402,135.116,256.859,135.116z M358.11,375.498c-0.88,0.884-2.074,1.381-3.321,1.381H157.373    c-2.584,0-4.68-2.092-4.686-4.676c-0.005-2.976-0.017-5.811-0.027-8.515c-0.225-57.883,0.791-59.529,54.311-88.107    c3.402-1.816,7.025-3.751,10.886-5.828c1.825-0.982,4.077-0.648,5.54,0.819l32.681,32.818l32.52-32.81    c1.462-1.476,3.721-1.813,5.548-0.827l5.95,3.199c29.021,15.594,43.588,23.421,51.351,35.251    c7.874,12.001,7.916,26.555,7.999,55.551c0.007,2.674,0.016,5.477,0.029,8.416C359.481,373.417,358.99,374.615,358.11,375.498z" style="fill-rule:evenodd;clip-rule:evenodd;"/>
<path fill="#fff" d="M343.611,313.345c-6.457-9.841-20.324-17.293-47.951-32.138l-2.872-1.544    l-33.374,33.675c-0.879,0.887-2.075,1.385-3.323,1.387c-0.002,0-0.004,0-0.006,0c-1.245,0-2.44-0.496-3.32-1.379l-33.546-33.688    c-2.734,1.466-5.343,2.859-7.834,4.189c-25.249,13.481-37.922,20.249-43.736,29.668c-5.775,9.354-5.723,22.983-5.618,50.136    c0.006,1.258,0.01,2.543,0.015,3.856h188.04c-0.004-1.27-0.007-2.511-0.011-3.727C349.997,336.64,349.957,323.017,343.611,313.345    z M255.997,345.38c-4.955,0-8.976-4.001-8.976-8.936c0-4.936,4.021-8.94,8.976-8.94c4.962,0,8.981,4.005,8.981,8.94    C264.979,341.379,260.959,345.38,255.997,345.38z" style="fill-rule:evenodd;clip-rule:evenodd;"/>
<path fill="#fff" d="M256.859,251.323c28.499,0,44.045-42.336,44.045-64.087    c0-23.572-19.758-42.75-44.045-42.75c-24.291,0-44.053,19.178-44.053,42.75C212.807,208.987,228.355,251.323,256.859,251.323z" style="fill-rule:evenodd;clip-rule:evenodd;"/>
<path fill="#fff" d="M255.997,46.17c-116.259,0-210.843,94.131-210.843,209.833    c0,115.699,94.583,209.827,210.843,209.827c116.263,0,210.849-94.128,210.849-209.827C466.846,140.301,372.26,46.17,255.997,46.17    z M255.997,439.45c-101.619,0-184.293-82.294-184.293-183.447c0-101.156,82.674-183.453,184.293-183.453    s184.294,82.297,184.294,183.453C440.291,357.156,357.616,439.45,255.997,439.45z" style="fill-rule:evenodd;clip-rule:evenodd;"/></g></g><g id="Layer_1"/></svg>